<?xml version="1.0" standalone="no"?>
<!DOCTYPE svg PUBLIC "-//W3C//DTD SVG 20010904//EN"
 "http://www.w3.org/TR/2001/REC-SVG-20010904/DTD/svg10.dtd">
<svg version="1.0" xmlns="http://www.w3.org/2000/svg"
 width="512.000000pt" height="512.000000pt" viewBox="0 0 512.000000 512.000000"
 preserveAspectRatio="xMidYMid meet">

<g transform="translate(0.000000,512.000000) scale(0.100000,-0.100000)"
fill="#000000" stroke="none">
<path d="M1800 4299 c-167 -15 -321 -59 -475 -134 -142 -69 -241 -141 -366
-265 -167 -166 -269 -325 -342 -536 -46 -131 -66 -233 -80 -407 l-12 -142 -62
-7 c-34 -4 -75 -14 -92 -22 -149 -78 -199 -257 -111 -398 27 -44 28 -48 10
-48 -84 0 -49 -214 55 -328 l36 -41 -41 -37 c-65 -59 -94 -124 -94 -214 0 -55
6 -87 21 -122 30 -66 100 -133 162 -155 41 -14 51 -22 51 -40 0 -50 53 -185
100 -256 121 -181 307 -300 511 -327 58 -7 513 -10 1489 -8 l1405 3 66 22
c206 71 341 245 383 496 l12 72 72 6 c91 9 149 37 206 100 97 107 103 266 16
389 l-20 28 34 21 c82 51 148 156 166 264 11 71 3 110 -25 121 -9 3 -48 6 -87
6 -68 0 -70 1 -55 18 9 10 26 40 38 67 76 169 -38 366 -221 382 l-57 6 -6 131
c-9 214 -53 389 -144 571 -224 446 -650 738 -1144 784 -131 13 -1267 13 -1399
0z m336 -144 c80 -30 284 -135 284 -146 0 -4 -4 -11 -10 -14 -16 -10 -12 -67
7 -87 29 -32 91 -18 105 24 7 20 52 -15 158 -122 125 -126 215 -254 299 -425
93 -188 158 -380 177 -527 l7 -48 -1249 2 -1249 3 -3 90 c-4 114 20 260 63
392 63 188 155 342 293 485 250 261 563 394 934 397 102 1 126 -2 184 -24z
m1064 -1470 c0 -92 -59 -198 -133 -238 -42 -22 -44 -22 -507 -22 -463 0 -465
0 -507 22 -74 40 -133 146 -133 238 l0 45 640 0 640 0 0 -45z m1550 -515 c-48
-95 -135 -149 -238 -150 -81 0 -121 20 -193 99 -35 38 -64 61 -77 61 -13 0
-48 -27 -89 -68 -74 -74 -114 -92 -199 -92 -70 1 -131 31 -195 100 -34 36 -65
60 -77 60 -13 0 -48 -27 -89 -68 -74 -74 -114 -92 -199 -92 -72 0 -141 36
-198 104 -58 67 -85 72 -125 25 -84 -100 -134 -128 -226 -129 -84 0 -147 31
-208 103 -67 79 -89 77 -155 -10 -98 -127 -302 -123 -400 7 -19 25 -43 49 -53
54 -30 14 -63 -3 -101 -54 -73 -97 -207 -128 -317 -74 -28 15 -64 42 -79 62
-72 93 -91 95 -159 15 -61 -71 -124 -103 -209 -103 -82 0 -154 36 -200 100
-53 74 -95 74 -147 1 -83 -116 -266 -138 -375 -46 -33 27 -65 75 -77 113 l-6
22 2206 0 2205 0 -20 -40z m-1660 -205 c0 -2 -10 -10 -22 -16 -21 -11 -22 -11
-9 4 13 16 31 23 31 12z m-1057 -595 l1419 0 -7 -42 c-22 -135 -136 -263 -312
-353 l-70 -35 -1009 2 -1009 3 -75 27 c-149 55 -272 162 -335 293 -38 79 -55
138 -34 118 10 -10 310 -13 1432 -13z"/>
<path d="M1185 3748 c-28 -16 -35 -28 -35 -65 0 -61 72 -84 110 -36 43 55 -16
134 -75 101z"/>
<path d="M1807 3592 c-38 -41 -10 -112 44 -112 30 0 43 9 58 38 33 62 -56 126
-102 74z"/>
<path d="M1255 3166 c-22 -16 -26 -76 -6 -100 18 -22 74 -20 94 2 22 25 21 75
-1 95 -23 21 -62 22 -87 3z"/>
<path d="M2407 3163 c-40 -46 -15 -113 42 -113 35 0 61 28 61 67 0 55 -67 85
-103 46z"/>
</g>
</svg>
